<svg width="20" height="14" viewBox="0 0 20 14" fill="none" xmlns="http://www.w3.org/2000/svg">
<path d="M19.6133 7.95204C19.7347 7.82524 19.8299 7.67571 19.8933 7.51204C19.9639 7.35244 20.0003 7.17987 20.0003 7.00537C20.0003 6.83088 19.9639 6.65831 19.8933 6.49871C19.8299 6.33504 19.7347 6.18551 19.6133 6.05871L14.28 0.725374C14.0289 0.474302 13.6884 0.333252 13.3333 0.333252C12.9783 0.333252 12.6377 0.474303 12.3867 0.725374C12.1356 0.976446 11.9945 1.31697 11.9945 1.67204C11.9945 2.02711 12.1356 2.36764 12.3867 2.61871L15.4533 5.67204H1.33333C0.979711 5.67204 0.640573 5.81252 0.390524 6.06257C0.140476 6.31261 0 6.65175 0 7.00537C0 7.359 0.140476 7.69813 0.390524 7.94818C0.640573 8.19823 0.979711 8.33871 1.33333 8.33871H15.4533L12.3867 11.392C12.1356 11.6431 11.9945 11.9836 11.9945 12.3387C11.9945 12.6938 12.1356 13.0343 12.3867 13.2854C12.6377 13.5364 12.9783 13.6775 13.3333 13.6775C13.6884 13.6775 14.0289 13.5364 14.28 13.2854L19.6133 7.95204Z" fill="white"/>
</svg>
