<svg width="24" height="24" viewBox="0 0 24 24" fill="none" xmlns="http://www.w3.org/2000/svg">
<g clip-path="url(#clip0_409_2403)">
<path d="M12.0008 23.4284C18.3127 23.4284 23.4294 18.3117 23.4294 11.9999C23.4294 5.68803 18.3127 0.571289 12.0008 0.571289C5.68901 0.571289 0.572266 5.68803 0.572266 11.9999C0.572266 18.3117 5.68901 23.4284 12.0008 23.4284Z" fill="#F3770F"/>
<path d="M5.72794 11.675L16.8768 7.48005C17.3942 7.29762 17.8461 7.60324 17.6785 8.36682L17.6794 8.36588L15.7811 17.0934C15.6405 17.7122 15.2637 17.8627 14.7366 17.5712L11.8458 15.492L10.4515 16.8029C10.2973 16.9533 10.1672 17.0803 9.86851 17.0803L10.0738 14.2093L15.4314 9.48586C15.6645 9.28556 15.3793 9.17272 15.0719 9.37208L8.45106 13.4401L5.59689 12.5712C4.9773 12.3794 4.96381 11.9666 5.72794 11.675Z" fill="white"/>
</g>
<defs>
<clipPath id="clip0_409_2403">
<rect width="24" height="24" fill="white"/>
</clipPath>
</defs>
</svg>
