<svg width="16" height="11" viewBox="0 0 16 11" fill="none" xmlns="http://www.w3.org/2000/svg">
<path d="M15.21 5.71409C15.301 5.61899 15.3724 5.50684 15.42 5.38409C15.4729 5.26439 15.5002 5.13496 15.5002 5.00409C15.5002 4.87322 15.4729 4.74379 15.42 4.62409C15.3724 4.50134 15.301 4.3892 15.21 4.29409L11.21 0.294092C11.0217 0.105788 10.7663 -1.9841e-09 10.5 0C10.2337 1.9841e-09 9.9783 0.105788 9.79 0.294092C9.6017 0.482395 9.49591 0.73779 9.49591 1.00409C9.49591 1.27039 9.6017 1.52579 9.79 1.71409L12.09 4.00409H1.5C1.23478 4.00409 0.98043 4.10945 0.792893 4.29699C0.605357 4.48452 0.5 4.73888 0.5 5.00409C0.5 5.26931 0.605357 5.52366 0.792893 5.7112C0.98043 5.89873 1.23478 6.00409 1.5 6.00409H12.09L9.79 8.29409C9.6017 8.4824 9.49591 8.73779 9.49591 9.00409C9.49591 9.27039 9.6017 9.52579 9.79 9.71409C9.9783 9.9024 10.2337 10.0082 10.5 10.0082C10.7663 10.0082 11.0217 9.9024 11.21 9.71409L15.21 5.71409Z" fill="currentColor"/>
</svg>
