<svg width="32" height="32" viewBox="0 0 32 32" fill="none" xmlns="http://www.w3.org/2000/svg">
<path d="M17.9053 28.7614L20.2619 28.29L26.3906 22.1614L24.5053 20.276L18.3766 26.4047L17.9053 28.7614Z" fill="#F3770F"/>
<path d="M28.2766 18.3905C28.0266 18.1405 27.6875 18 27.3338 18C26.9802 18 26.6411 18.1405 26.391 18.3905L25.4482 19.3333L27.3338 21.2189L28.2766 20.2761C28.5267 20.0261 28.6672 19.6869 28.6672 19.3333C28.6672 18.9797 28.5267 18.6406 28.2766 18.3905V18.3905Z" fill="#F3770F"/>
<path d="M16.2047 30.4623L17.1494 25.7468L23.5627 19.3335L25.4481 17.4481C25.7853 17.1137 26.2063 16.8763 26.667 16.761V2.66667C26.6664 2.13642 26.4555 1.62805 26.0806 1.2531C25.7056 0.878155 25.1972 0.667254 24.667 0.666672H4.66699C4.13674 0.667254 3.62837 0.878155 3.25342 1.2531C2.87848 1.62805 2.66757 2.13642 2.66699 2.66667V29.3333C2.66757 29.8636 2.87848 30.372 3.25342 30.7469C3.62837 31.1219 4.13674 31.3328 4.66699 31.3333H24.667C25.1972 31.3328 25.7056 31.1219 26.0806 30.7469C26.4555 30.372 26.6664 29.8636 26.667 29.3333V23.7709L20.9203 29.5175L16.2047 30.4623ZM7.33366 4H14.667C14.8438 4 15.0134 4.07024 15.1384 4.19527C15.2634 4.32029 15.3337 4.48986 15.3337 4.66667C15.3337 4.84348 15.2634 5.01305 15.1384 5.13808C15.0134 5.2631 14.8438 5.33334 14.667 5.33334H7.33366C7.15685 5.33334 6.98728 5.2631 6.86225 5.13808C6.73723 5.01305 6.66699 4.84348 6.66699 4.66667C6.66699 4.48986 6.73723 4.32029 6.86225 4.19527C6.98728 4.07024 7.15685 4 7.33366 4V4ZM7.33366 7.33334H22.0003C22.1771 7.33334 22.3467 7.40358 22.4717 7.5286C22.5968 7.65362 22.667 7.82319 22.667 8C22.667 8.17682 22.5968 8.34638 22.4717 8.47141C22.3467 8.59643 22.1771 8.66667 22.0003 8.66667H7.33366C7.15685 8.66667 6.98728 8.59643 6.86225 8.47141C6.73723 8.34638 6.66699 8.17682 6.66699 8C6.66699 7.82319 6.73723 7.65362 6.86225 7.5286C6.98728 7.40358 7.15685 7.33334 7.33366 7.33334V7.33334ZM7.33366 10.6667H18.667C18.8438 10.6667 19.0134 10.7369 19.1384 10.8619C19.2634 10.987 19.3337 11.1565 19.3337 11.3333C19.3337 11.5101 19.2634 11.6797 19.1384 11.8047C19.0134 11.9298 18.8438 12 18.667 12H7.33366C7.15685 12 6.98728 11.9298 6.86225 11.8047C6.73723 11.6797 6.66699 11.5101 6.66699 11.3333C6.66699 11.1565 6.73723 10.987 6.86225 10.8619C6.98728 10.7369 7.15685 10.6667 7.33366 10.6667V10.6667ZM7.33366 14H22.0003C22.1771 14 22.3467 14.0702 22.4717 14.1953C22.5968 14.3203 22.667 14.4899 22.667 14.6667C22.667 14.8435 22.5968 15.0131 22.4717 15.1381C22.3467 15.2631 22.1771 15.3333 22.0003 15.3333H7.33366C7.15685 15.3333 6.98728 15.2631 6.86225 15.1381C6.73723 15.0131 6.66699 14.8435 6.66699 14.6667C6.66699 14.4899 6.73723 14.3203 6.86225 14.1953C6.98728 14.0702 7.15685 14 7.33366 14V14ZM14.667 18.6667H7.33366C7.15685 18.6667 6.98728 18.5964 6.86225 18.4714C6.73723 18.3464 6.66699 18.1768 6.66699 18C6.66699 17.8232 6.73723 17.6536 6.86225 17.5286C6.98728 17.4036 7.15685 17.3333 7.33366 17.3333H14.667C14.8438 17.3333 15.0134 17.4036 15.1384 17.5286C15.2634 17.6536 15.3337 17.8232 15.3337 18C15.3337 18.1768 15.2634 18.3464 15.1384 18.4714C15.0134 18.5964 14.8438 18.6667 14.667 18.6667Z" fill="#F3770F"/>
</svg>
