<svg width="32" height="32" viewBox="0 0 32 32" fill="none" xmlns="http://www.w3.org/2000/svg">
<path d="M25.375 1.9375H17.875C14.2568 1.9375 11.3125 4.88181 11.3125 8.5C11.3125 11.8005 13.7616 14.5397 16.9375 14.9957V17.875C16.9375 18.254 17.1654 18.5964 17.5161 18.7411C17.8619 18.8854 18.2676 18.808 18.5379 18.5378L22.0132 15.0625H25.375C28.9932 15.0625 32 12.1182 32 8.5C32 4.88181 28.9932 1.9375 25.375 1.9375V1.9375ZM17.875 9.43738C17.3571 9.43738 16.9375 9.01763 16.9375 8.49988C16.9375 7.98213 17.3571 7.56238 17.875 7.56238C18.3928 7.56238 18.8125 7.98213 18.8125 8.49988C18.8125 9.01763 18.3928 9.43738 17.875 9.43738ZM21.625 9.43738C21.1071 9.43738 20.6875 9.01763 20.6875 8.49988C20.6875 7.98213 21.1071 7.56238 21.625 7.56238C22.1428 7.56238 22.5625 7.98213 22.5625 8.49988C22.5625 9.01763 22.1428 9.43738 21.625 9.43738ZM25.375 9.43738C24.8571 9.43738 24.4375 9.01763 24.4375 8.49988C24.4375 7.98213 24.8571 7.56238 25.375 7.56238C25.8928 7.56238 26.3125 7.98213 26.3125 8.49988C26.3125 9.01763 25.8928 9.43738 25.375 9.43738Z" fill="#F3770F"/>
<path d="M21.0625 30.0625C22.6134 30.0625 23.875 28.8009 23.875 27.25V23.5C23.875 23.0962 23.6168 22.7383 23.2341 22.611L17.6223 20.736C17.3476 20.6436 17.0474 20.6856 16.8057 20.8449L14.4198 22.4352C11.8929 21.2304 8.89463 18.232 7.68975 15.7051L9.28 13.3193C9.44019 13.0784 9.4805 12.7773 9.38894 12.5026L7.51394 6.89081C7.38675 6.50819 7.02875 6.25 6.625 6.25H2.8125C1.26163 6.25 0 7.49844 0 9.04931C0 19.8507 10.2611 30.0625 21.0625 30.0625V30.0625Z" fill="#F3770F"/>
</svg>
