<svg width="16" height="11" viewBox="0 0 16 11" fill="none" xmlns="http://www.w3.org/2000/svg">
<path d="M0.789999 5.28591C0.698959 5.38101 0.627594 5.49316 0.579999 5.61591C0.527094 5.73561 0.499767 5.86504 0.499767 5.99591C0.499767 6.12678 0.527094 6.25621 0.58 6.37591C0.627594 6.49866 0.698959 6.61081 0.79 6.70591L4.79 10.7059C4.9783 10.8942 5.2337 11 5.5 11C5.7663 11 6.0217 10.8942 6.21 10.7059C6.3983 10.5176 6.50409 10.2622 6.50409 9.99591C6.50409 9.72961 6.3983 9.47421 6.21 9.28591L3.91 6.99591L14.5 6.99591C14.7652 6.99591 15.0196 6.89055 15.2071 6.70301C15.3946 6.51548 15.5 6.26112 15.5 5.99591C15.5 5.73069 15.3946 5.47634 15.2071 5.2888C15.0196 5.10127 14.7652 4.99591 14.5 4.99591L3.91 4.99591L6.21 2.70591C6.3983 2.51761 6.50409 2.26221 6.50409 1.99591C6.50409 1.72961 6.3983 1.47421 6.21 1.28591C6.0217 1.09761 5.7663 0.991818 5.5 0.991818C5.2337 0.991818 4.9783 1.09761 4.79 1.28591L0.789999 5.28591Z" fill="currentColor"/>
</svg>
