<svg width="20" height="21" viewBox="0 0 20 21" fill="none" xmlns="http://www.w3.org/2000/svg">
<g clip-path="url(#clip0_108_1030)">
<path d="M12.0004 0.5H8.00024C4.14011 0.5 1 3.64011 1 7.50024V10.5003C1 13.2129 2.56255 15.6705 5.00014 16.8281V20.1707C5.00014 20.4607 5.36265 20.6107 5.56766 20.4057L8.47276 17.5031H12.0004C15.8605 17.5031 19.0006 14.363 19.0006 10.5003V7.50024C19.0006 3.64011 15.8605 0.5 12.0004 0.5ZM14.6205 13.6207L13.6079 14.6107C12.5429 15.6533 9.7628 14.4632 7.31272 11.9606C4.86263 9.45556 3.7876 6.65046 4.80013 5.60793L5.81267 4.61789C6.18518 4.25288 6.8177 4.26038 7.23522 4.63289L8.69527 6.12545C9.21529 6.65796 8.99528 7.5505 8.30775 7.7555C7.83274 7.90801 7.51023 8.43053 7.66273 8.90554C7.91524 10.0156 9.32279 11.4031 10.3728 11.6781C10.8453 11.7881 11.3754 11.5306 11.5404 11.0581C11.7579 10.3756 12.6554 10.1731 13.1779 10.7081L14.6355 12.1982C15.0005 12.5704 14.9955 13.2032 14.6205 13.6207ZM10.9103 5.25017C10.8103 5.25017 10.7103 5.25517 10.6128 5.26767C10.4303 5.28767 10.2653 5.15516 10.2453 4.97266C10.2253 4.79015 10.3578 4.62514 10.5403 4.60514C10.6628 4.59014 10.7878 4.58514 10.9103 4.58514C12.7479 4.58514 14.243 6.08019 14.243 7.91776C14.243 8.04026 14.238 8.16527 14.223 8.28777C14.203 8.46778 14.0355 8.60278 13.8554 8.58278C13.6754 8.56278 13.5404 8.39528 13.5604 8.21527C13.5704 8.11777 13.5779 8.01776 13.5779 7.91776C13.5779 6.44771 12.3804 5.25017 10.9103 5.25017ZM12.9104 7.91776C12.9104 8.10026 12.7579 8.25027 12.5754 8.25027C12.3954 8.25027 12.2429 8.10026 12.2429 7.91776C12.2429 7.18273 11.6454 6.58521 10.9103 6.58521C10.7253 6.58521 10.5753 6.43521 10.5753 6.2502C10.5753 6.06769 10.7253 5.91769 10.9103 5.91769C12.0129 5.91769 12.9104 6.81522 12.9104 7.91776ZM15.453 8.9953C15.4105 9.1753 15.218 9.28781 15.0405 9.2403C14.868 9.1928 14.763 9.0128 14.803 8.84029C14.8755 8.54028 14.9105 8.23027 14.9105 7.91776C14.9105 5.71268 13.1154 3.91762 10.9103 3.91762C10.8078 3.91762 10.7028 3.92012 10.6003 3.93012C10.4178 3.94262 10.2578 3.80511 10.2428 3.62261C10.2303 3.4376 10.3678 3.2776 10.5503 3.2651C10.6703 3.2551 10.7903 3.2501 10.9103 3.2501C13.4829 3.2501 15.578 5.34517 15.578 7.91776C15.578 8.28027 15.5355 8.64278 15.453 8.9953Z" fill="#665CAC"/>
</g>
<defs>
<clipPath id="clip0_108_1030">
<rect width="20" height="20" fill="white" transform="translate(0 0.5)"/>
</clipPath>
</defs>
</svg>
