<svg width="20" height="21" viewBox="0 0 20 21" fill="none" xmlns="http://www.w3.org/2000/svg">
<g clip-path="url(#clip0_108_1024)">
<path d="M10.0004 20.0237C15.2602 20.0237 19.5242 15.7597 19.5242 10.4999C19.5242 5.24003 15.2602 0.976074 10.0004 0.976074C4.74052 0.976074 0.476562 5.24003 0.476562 10.4999C0.476562 15.7597 4.74052 20.0237 10.0004 20.0237Z" fill="#039BE5"/>
<path d="M4.77393 10.229L14.0646 6.73321C14.4958 6.58119 14.8724 6.83587 14.7327 7.47219L14.7335 7.4714L13.1516 14.7444C13.0344 15.26 12.7204 15.3854 12.2812 15.1425L9.87216 13.4098L8.71022 14.5022C8.58174 14.6276 8.47334 14.7334 8.22441 14.7334L8.39545 12.3409L12.8601 8.40472C13.0544 8.2378 12.8168 8.14377 12.5606 8.3099L7.0432 11.6999L4.66472 10.9758C4.1484 10.816 4.13716 10.472 4.77393 10.229Z" fill="white"/>
</g>
<defs>
<clipPath id="clip0_108_1024">
<rect width="20" height="20" fill="white" transform="translate(0 0.5)"/>
</clipPath>
</defs>
</svg>
