<svg width="32" height="32" viewBox="0 0 32 32" fill="none" xmlns="http://www.w3.org/2000/svg">
<g clip-path="url(#clip0_373_2716)">
<path d="M27.6364 10.1818H23.2727V4.36365H2.90912C1.3018 4.36365 0 5.66544 0 7.27276V23.2728H2.90912C2.90912 25.6801 4.86546 27.6364 7.27276 27.6364C9.68005 27.6364 11.6364 25.6801 11.6364 23.2728H20.3637C20.3637 25.6801 22.32 27.6364 24.7273 27.6364C27.1346 27.6364 29.091 25.6801 29.091 23.2728H32.0001V16L27.6364 10.1818ZM7.27276 25.4545C6.06546 25.4545 5.09094 24.48 5.09094 23.2727C5.09094 22.0654 6.06546 21.0909 7.27276 21.0909C8.48005 21.0909 9.45458 22.0654 9.45458 23.2727C9.45458 24.48 8.47998 25.4545 7.27276 25.4545ZM24.7273 25.4545C23.52 25.4545 22.5455 24.48 22.5455 23.2727C22.5455 22.0654 23.52 21.0909 24.7273 21.0909C25.9346 21.0909 26.9091 22.0654 26.9091 23.2727C26.9091 24.48 25.9345 25.4545 24.7273 25.4545ZM23.2727 16V12.3637H26.9091L29.7672 16H23.2727Z" fill="#F3770F"/>
</g>
<defs>
<clipPath id="clip0_373_2716">
<rect width="32" height="32" fill="white"/>
</clipPath>
</defs>
</svg>
