<svg width="20" height="21" viewBox="0 0 20 21" fill="none" xmlns="http://www.w3.org/2000/svg">
<g clip-path="url(#clip0_108_1027)">
<path d="M10.002 0.976318H9.99751C5.00887 0.976318 0.952148 5.03418 0.952148 10.0239C0.952148 12.0031 1.59001 13.8375 2.67459 15.327L1.54703 18.6882L5.02471 17.5764C6.45536 18.5242 8.16197 19.0716 10.002 19.0716C14.9907 19.0716 19.0474 15.0126 19.0474 10.0239C19.0474 5.03531 14.9907 0.976318 10.002 0.976318Z" fill="#4CAF50"/>
<path d="M15.0507 13.5092C14.8372 14.0976 13.9902 14.5857 13.3146 14.7282C12.8524 14.8243 12.2487 14.901 10.2163 14.0782C7.61675 13.0265 5.94265 10.447 5.81217 10.2796C5.68723 10.1122 4.76172 8.91371 4.76172 7.67415C4.76172 6.43458 5.40637 5.831 5.66622 5.57185C5.87962 5.35914 6.23236 5.26196 6.57071 5.26196C6.68018 5.26196 6.77859 5.26736 6.86705 5.27168C7.1269 5.28248 7.25738 5.2976 7.42877 5.69819C7.64218 6.20027 8.16188 7.43984 8.2238 7.56725C8.28683 7.69466 8.34985 7.86742 8.26139 8.03479C8.17846 8.20755 8.10548 8.28421 7.97501 8.43106C7.84453 8.57791 7.72069 8.6902 7.59021 8.84785C7.47079 8.98498 7.33589 9.13182 7.48627 9.38557C7.63665 9.63391 8.15635 10.4621 8.92152 11.1272C9.90895 11.9856 10.7095 12.2599 10.9959 12.3765C11.2093 12.4629 11.4636 12.4424 11.6195 12.2804C11.8175 12.072 12.0618 11.7265 12.3106 11.3864C12.4875 11.1423 12.7109 11.1121 12.9453 11.1985C13.1842 11.2795 14.448 11.8895 14.7079 12.0159C14.9677 12.1433 15.1391 12.2037 15.2021 12.3106C15.2641 12.4175 15.2641 12.9196 15.0507 13.5092Z" fill="#FAFAFA"/>
</g>
<defs>
<clipPath id="clip0_108_1027">
<rect width="20" height="20" fill="white" transform="translate(0 0.5)"/>
</clipPath>
</defs>
</svg>
