<svg width="32" height="32" viewBox="0 0 32 32" fill="none" xmlns="http://www.w3.org/2000/svg">
<g clip-path="url(#clip0_382_4525)">
<path d="M0.761719 15.3905C0.761719 8.49453 0.761719 5.04657 2.90402 2.90427C5.04633 0.761963 8.49429 0.761963 15.3903 0.761963H16.6093C23.5053 0.761963 26.9533 0.761963 29.0956 2.90427C31.2379 5.04657 31.2379 8.49453 31.2379 15.3905V16.6096C31.2379 23.5056 31.2379 26.9535 29.0956 29.0959C26.9533 31.2382 23.5053 31.2382 16.6093 31.2382H15.3903C8.49429 31.2382 5.04633 31.2382 2.90402 29.0959C0.761719 26.9535 0.761719 23.5056 0.761719 16.6096V15.3905Z" fill="#0077FF"/>
<path d="M16.8851 22.8572C10.1169 22.8572 6.25655 17.9952 6.0957 9.90479H9.48597C9.59732 15.8429 12.0967 18.3582 14.0764 18.8768V9.90479H17.2688V15.0261C19.2238 14.8057 21.2775 12.4719 21.9704 9.90479H25.1627C24.6307 13.0683 22.4035 15.4021 20.8197 16.3615C22.4035 17.1394 24.9401 19.175 25.9052 22.8572H22.3911C21.6363 20.3938 19.7558 18.4878 17.2688 18.2285V22.8572H16.8851Z" fill="white"/>
</g>
<defs>
<clipPath id="clip0_382_4525">
<rect width="32" height="32" fill="white"/>
</clipPath>
</defs>
</svg>
