<svg width="24" height="24" viewBox="0 0 24 24" fill="none" xmlns="http://www.w3.org/2000/svg">
<path d="M12.0024 0.571289H11.997C6.01065 0.571289 1.14258 5.44072 1.14258 11.4284C1.14258 13.8034 1.90801 16.0047 3.20951 17.7921L1.85644 21.8255L6.02965 20.4914C7.74644 21.6287 9.79436 22.2856 12.0024 22.2856C17.9888 22.2856 22.8569 17.4148 22.8569 11.4284C22.8569 5.44207 17.9888 0.571289 12.0024 0.571289Z" fill="#F3770F"/>
<path d="M18.0616 15.6115C17.8055 16.3177 16.7891 16.9033 15.9783 17.0744C15.4237 17.1897 14.6992 17.2817 12.2604 16.2943C9.14088 15.0323 7.13196 11.9369 6.97539 11.736C6.82545 11.5352 5.71484 10.0969 5.71484 8.60946C5.71484 7.12199 6.48842 6.39768 6.80024 6.08671C7.05633 5.83146 7.47961 5.71484 7.88564 5.71484C8.017 5.71484 8.13509 5.72132 8.24125 5.72651C8.55306 5.73946 8.70964 5.7576 8.91531 6.23831C9.1714 6.84082 9.79503 8.3283 9.86934 8.48119C9.94497 8.63408 10.0206 8.8414 9.91446 9.04223C9.81494 9.24955 9.72736 9.34154 9.57079 9.51776C9.41422 9.69398 9.26561 9.82873 9.10903 10.0179C8.96573 10.1825 8.80385 10.3587 8.9843 10.6632C9.16476 10.9612 9.7884 11.955 10.7066 12.7532C11.8915 13.7832 12.8522 14.1124 13.1959 14.2523C13.4519 14.3559 13.7571 14.3313 13.9442 14.137C14.1817 13.8869 14.475 13.4723 14.7735 13.0641C14.9858 12.7713 15.2539 12.735 15.5352 12.8387C15.8218 12.9358 17.3384 13.6679 17.6502 13.8195C17.9621 13.9724 18.1677 14.045 18.2434 14.1733C18.3177 14.3015 18.3177 14.904 18.0616 15.6115Z" fill="white"/>
</svg>
