<svg width="24" height="24" viewBox="0 0 24 24" fill="none" xmlns="http://www.w3.org/2000/svg">
<g clip-path="url(#clip0_409_2409)">
<path d="M14.3997 0H9.59951C4.96735 0 1.19922 3.76813 1.19922 8.40029V12.0004C1.19922 15.2555 3.07428 18.2046 5.99939 19.5937V23.6048C5.99939 23.9528 6.4344 24.1328 6.68041 23.8868L10.1665 20.4037H14.3997C19.0318 20.4037 22.8 16.6356 22.8 12.0004V8.40029C22.8 3.76813 19.0318 0 14.3997 0ZM17.5438 15.7448L16.3287 16.9329C15.0507 18.1839 11.7146 16.7559 8.77448 13.7528C5.83438 10.7467 4.54434 7.38056 5.75938 6.12951L6.97442 4.94147C7.42143 4.50346 8.18046 4.51246 8.68148 4.95947L10.4335 6.75054C11.0576 7.38956 10.7936 8.46059 9.96852 8.7066C9.3985 8.88961 9.01149 9.51663 9.1945 10.0867C9.49751 11.4187 11.1866 13.0838 12.4466 13.4138C13.0136 13.5458 13.6497 13.2368 13.8477 12.6697C14.1087 11.8507 15.1857 11.6077 15.8127 12.2497L17.5618 14.0378C17.9998 14.4845 17.9938 15.2438 17.5438 15.7448ZM13.0916 5.7002C12.9716 5.7002 12.8516 5.7062 12.7346 5.7212C12.5156 5.7452 12.3176 5.58619 12.2936 5.36719C12.2696 5.14818 12.4286 4.95017 12.6476 4.92617C12.7946 4.90817 12.9446 4.90217 13.0916 4.90217C15.2967 4.90217 17.0908 6.69623 17.0908 8.90131C17.0908 9.04831 17.0848 9.19832 17.0668 9.34533C17.0428 9.56133 16.8418 9.72334 16.6258 9.69934C16.4097 9.67534 16.2477 9.47433 16.2717 9.25832C16.2837 9.14132 16.2927 9.02131 16.2927 8.90131C16.2927 7.13725 14.8557 5.7002 13.0916 5.7002ZM15.4917 8.90131C15.4917 9.12032 15.3087 9.30032 15.0897 9.30032C14.8737 9.30032 14.6907 9.12032 14.6907 8.90131C14.6907 8.01928 13.9737 7.30225 13.0916 7.30225C12.8696 7.30225 12.6896 7.12225 12.6896 6.90024C12.6896 6.68123 12.8696 6.50123 13.0916 6.50123C14.4147 6.50123 15.4917 7.57826 15.4917 8.90131ZM18.5428 10.1944C18.4918 10.4104 18.2608 10.5454 18.0478 10.4884C17.8408 10.4314 17.7148 10.2154 17.7628 10.0083C17.8498 9.64834 17.8918 9.27632 17.8918 8.90131C17.8918 6.25522 15.7377 4.10114 13.0916 4.10114C12.9686 4.10114 12.8426 4.10414 12.7196 4.11614C12.5006 4.13114 12.3086 3.96614 12.2906 3.74713C12.2756 3.52512 12.4406 3.33312 12.6596 3.31812C12.8036 3.30611 12.9476 3.30011 13.0916 3.30011C16.1787 3.30011 18.6928 5.8142 18.6928 8.90131C18.6928 9.33632 18.6418 9.77134 18.5428 10.1944Z" fill="#F3770F"/>
<path fill-rule="evenodd" clip-rule="evenodd" d="M13.092 5.70086C12.972 5.70086 12.852 5.70686 12.735 5.72187C12.5159 5.74587 12.3179 5.58686 12.2939 5.36785C12.2699 5.14885 12.4289 4.95084 12.6479 4.92684C12.795 4.90884 12.945 4.90284 13.092 4.90284C15.297 4.90284 17.0911 6.6969 17.0911 8.90198C17.0911 9.04898 17.0851 9.19899 17.0671 9.34599C17.0431 9.562 16.8421 9.72401 16.6261 9.7C16.4101 9.676 16.2481 9.475 16.2721 9.25899C16.2841 9.14199 16.2931 9.02198 16.2931 8.90198C16.2931 7.13791 14.856 5.70086 13.092 5.70086ZM18.5432 10.195C18.4921 10.411 18.2611 10.546 18.0481 10.489C17.8411 10.432 17.7151 10.216 17.7631 10.009C17.8501 9.649 17.8921 9.27699 17.8921 8.90198C17.8921 6.25588 15.7381 4.10181 13.092 4.10181C12.969 4.10181 12.843 4.10481 12.7199 4.11681C12.5009 4.13181 12.3089 3.9668 12.2909 3.7478C12.2759 3.52579 12.4409 3.33378 12.6599 3.31878C12.804 3.30678 12.948 3.30078 13.092 3.30078C16.1791 3.30078 18.6932 5.81487 18.6932 8.90198C18.6932 9.33699 18.6422 9.77201 18.5432 10.195Z" fill="white"/>
<path d="M15.492 8.90198C15.492 9.12098 15.309 9.30099 15.09 9.30099C14.874 9.30099 14.691 9.12098 14.691 8.90198C14.691 8.01995 13.974 7.30292 13.092 7.30292C12.87 7.30292 12.6899 7.12291 12.6899 6.90091C12.6899 6.6819 12.87 6.50189 13.092 6.50189C14.415 6.50189 15.492 7.57893 15.492 8.90198Z" fill="white"/>
<path d="M17.5441 15.7455L16.3291 16.9336C15.051 18.1846 11.7149 16.7565 8.77481 13.7534C5.83471 10.7473 4.54467 7.38122 5.75971 6.13018L6.97475 4.94214C7.42177 4.50412 8.18079 4.51312 8.68181 4.96014L10.4339 6.7512C11.0579 7.39022 10.7939 8.46126 9.96885 8.70727C9.39883 8.89028 9.01182 9.5173 9.19483 10.0873C9.49784 11.4194 11.1869 13.0844 12.4469 13.4144C13.014 13.5464 13.65 13.2374 13.848 12.6704C14.109 11.8514 15.186 11.6084 15.8131 12.2504L17.5621 14.0385C18.0001 14.4852 17.9941 15.2445 17.5441 15.7455Z" fill="white"/>
</g>
<defs>
<clipPath id="clip0_409_2409">
<rect width="24" height="24" fill="white"/>
</clipPath>
</defs>
</svg>
