<svg width="24" height="24" viewBox="0 0 24 24" fill="none" xmlns="http://www.w3.org/2000/svg">
<g clip-path="url(#clip0_409_2400)">
<path d="M0.571411 11.5427C0.571411 6.37072 0.571411 3.78475 2.17814 2.17802C3.78487 0.571289 6.37084 0.571289 11.5428 0.571289H12.4571C17.6291 0.571289 20.2151 0.571289 21.8218 2.17802C23.4286 3.78475 23.4286 6.37072 23.4286 11.5427V12.457C23.4286 17.629 23.4286 20.215 21.8218 21.8217C20.2151 23.4284 17.6291 23.4284 12.4571 23.4284H11.5428C6.37084 23.4284 3.78487 23.4284 2.17814 21.8217C0.571411 20.215 0.571411 17.629 0.571411 12.457V11.5427Z" fill="#F3770F"/>
<path d="M12.6635 17.143C7.58734 17.143 4.69205 13.4965 4.57141 7.42871H7.11411C7.19763 11.8823 9.07212 13.7688 10.5569 14.1577V7.42871H12.9512V11.2697C14.4174 11.1044 15.9577 9.35406 16.4774 7.42871H18.8717C18.4726 9.80137 16.8022 11.5517 15.6144 12.2713C16.8022 12.8547 18.7047 14.3814 19.4286 17.143H16.793C16.2269 15.2954 14.8165 13.866 12.9512 13.6715V17.143H12.6635Z" fill="white"/>
</g>
<defs>
<clipPath id="clip0_409_2400">
<rect width="24" height="24" fill="white"/>
</clipPath>
</defs>
</svg>
