<svg width="32" height="32" viewBox="0 0 32 32" fill="none" xmlns="http://www.w3.org/2000/svg">
<path d="M25.3373 4.85915L23.7335 6.43322C23.7335 6.43322 23.1967 6.31222 22.8238 6.13072L20.3109 4.9081C20.0057 4.7596 19.6295 4.6881 19.2462 4.6881C18.6945 4.6881 18.1264 4.8366 17.7282 5.11819L13.8414 7.84394C13.166 8.32188 13.0164 9.25631 13.5092 9.92125L13.7397 10.2325C14.0559 10.6582 14.5729 10.8909 15.0899 10.8909C15.3808 10.8909 15.6712 10.8177 15.9264 10.6637L17.7705 9.48676C18.0967 9.29041 18.5108 9.19361 18.9294 9.19361C19.4205 9.19361 19.9171 9.32726 20.2807 9.5885L22.9575 12.0409C23.6296 12.5243 24.6745 13.3818 25.2817 13.9444L27.7127 16.2038L31.9998 11.2363L25.3373 4.85915Z" fill="#F3770F"/>
<path d="M26.9643 18.0259L22.896 14.2447C22.5424 13.9576 21.7543 13.3543 21.7543 13.3543L19.2045 11.019C19.1506 10.9987 19.0516 10.975 18.9295 10.975C18.8025 10.975 18.7183 11.0009 18.6969 11.0102L16.8478 12.1889C16.3231 12.5056 15.7154 12.6723 15.0911 12.6723C13.9906 12.6723 12.9506 12.157 12.3093 11.2924L12.0794 10.9827C11.5525 10.2721 11.3391 9.40151 11.4788 8.53033C11.618 7.65969 12.0926 6.89851 12.8197 6.38482L13.2382 6.09168C12.6343 6.01798 11.9645 6.08233 11.4744 6.29187C11.4744 6.29187 10.6533 6.65266 10.3898 6.76431C9.77935 7.02336 8.92357 7.01951 8.92357 7.01951L6.91501 5.14845L0 12.0173L2.60035 14.6325L3.19104 14.0137C3.80702 13.3675 4.67436 12.9962 5.57029 12.9962C6.42002 12.9962 7.22575 13.3185 7.83899 13.9032L8.11893 14.1699C8.47918 14.5137 8.74482 14.9184 8.91477 15.3551C9.45211 15.4932 9.9471 15.766 10.3585 16.1581L10.6368 16.4243C11.2715 17.0282 11.6334 17.8444 11.6548 18.7233C11.8473 18.8421 12.0299 18.9823 12.1966 19.1418L12.4781 19.4102C12.8725 19.7864 13.153 20.2374 13.318 20.7208C13.8163 20.866 14.2755 21.1284 14.6583 21.493L14.9432 21.7636C16.0883 22.8559 16.2703 24.5834 15.4673 25.8775L15.6807 26.0766C16.2868 26.6404 17.2438 26.6057 17.8075 25.9996L18.071 25.7153C18.6226 25.1213 18.5951 24.1951 18.0231 23.6292L19.9739 25.4386C20.5811 26.0013 21.5381 25.9661 22.1019 25.3589L22.3653 25.0756C22.9252 24.4729 22.8922 23.5241 22.296 22.9593L22.7976 23.4257C23.4042 23.9889 24.3607 23.9531 24.9238 23.347L25.1878 23.0632C25.751 22.456 25.7153 21.4991 25.1092 20.9353L24.6857 20.5426C25.2945 21.0739 26.2251 21.0332 26.7779 20.4376L27.0429 20.1532C27.6061 19.5455 27.5715 18.5885 26.9643 18.0259Z" fill="#F3770F"/>
<path d="M13.7119 23.0527L13.4303 22.7849C13.14 22.5082 12.766 22.3707 12.392 22.3707C11.9949 22.3707 11.5978 22.5264 11.303 22.8355L11.298 22.8272C11.8684 22.2283 11.8458 21.2708 11.2469 20.6999L10.9658 20.432C10.6766 20.157 10.3064 20.0206 9.93462 20.0206C9.55897 20.0206 9.18443 20.1598 8.89404 20.4342L9.45778 19.8436C10.0292 19.2446 10.0072 18.2865 9.40718 17.7156L9.12668 17.4478C8.83739 17.1717 8.4645 17.0353 8.09215 17.0353C7.70551 17.0353 7.31997 17.1822 7.02738 17.4731C7.49762 16.8725 7.45087 15.998 6.88768 15.4607L6.60773 15.1934C6.31734 14.9167 5.94225 14.7793 5.5688 14.7793C5.17061 14.7787 4.77407 14.9349 4.47928 15.244L1.65288 18.2073C1.082 18.8057 1.10455 19.7638 1.70513 20.3341L1.98453 20.6014C2.27327 20.8764 2.64396 21.0112 3.01411 21.0112C3.35565 21.0112 3.69664 20.8962 3.97384 20.6696L3.22915 21.4495C2.65881 22.049 2.68136 23.006 3.27975 23.5774L3.5619 23.8453C3.85229 24.1219 4.22683 24.2594 4.59972 24.2594C4.99792 24.2594 5.39446 24.1038 5.68925 23.7947L6.27059 23.1847C5.75305 23.7859 5.7877 24.6994 6.36794 25.2521L6.65008 25.52C6.93993 25.7961 7.31447 25.9336 7.68846 25.9336C8.0861 25.9336 8.4832 25.7779 8.77744 25.4688L9.71187 24.502C9.14043 25.1014 9.16243 26.0584 9.76247 26.6299L10.0441 26.8977C10.3334 27.1743 10.7073 27.3118 11.0813 27.3118C11.479 27.3118 11.8761 27.1562 12.1703 26.8471L13.7625 25.1784C14.334 24.5812 14.3103 23.6242 13.7119 23.0527Z" fill="#F3770F"/>
</svg>
