<svg width="146" height="70" viewBox="0 0 146 70" fill="none" xmlns="http://www.w3.org/2000/svg">
<path d="M26.1751 13.9806C26.1751 15.0271 25.9566 16.2162 25.5292 17.5554C25.1613 18.6332 24.7227 19.6411 24.225 20.5676C24.8624 20.8802 25.4884 21.2429 26.1159 21.6555C26.8519 22.1493 27.4286 22.592 27.8376 22.9845C30.6916 25.9155 32.1241 29.4416 32.1241 33.5504C32.1241 37.6804 30.6916 41.1966 27.8376 44.1076C24.9823 47.0583 21.5191 48.5388 17.4609 48.5388H0V0.966515H13.1122C16.7545 0.966515 19.858 2.28566 22.444 4.9253C24.9315 7.48359 26.1751 10.5045 26.1751 13.9806ZM17.4609 39.2122C18.9724 39.2122 20.2654 38.6583 21.3399 37.5291C22.3848 36.4312 22.9121 35.1022 22.9121 33.5504C22.9121 31.9899 22.3651 30.6493 21.2807 29.5016C20.2063 28.4038 18.9331 27.7998 17.4609 27.7086C16.3356 27.6485 14.9934 27.6286 13.4408 27.6485H11.4808C10.646 27.6686 9.95931 27.6785 9.41215 27.6785V39.2122H17.4609ZM17.083 14.3632C17.083 13.2654 16.6938 12.2974 15.9182 11.4723C15.1428 10.6656 14.2078 10.2631 13.1122 10.2631H9.41215V18.9658C10.2469 18.9358 11.4216 18.8545 12.9431 18.7345C14.1078 18.5932 15.0821 18.1293 15.8591 17.344C16.674 16.5389 17.083 15.5509 17.083 14.3632ZM52.9678 0L74.4178 48.5388H64.1806L61.0066 41.3066H44.9191L41.745 48.5388H31.5376L52.9678 0ZM57.2755 32.8665L52.9874 22.8032L48.6502 32.8665H57.2755ZM106.83 0.855217V10.3845H87.9375V19.9738H102.104V29.5016H87.9375V39.0909H106.83V48.5987H78.4957V0.855217H106.83ZM111.487 0.966515H126.819C131.794 0.966515 135.891 2.57838 139.115 5.81181C140.697 7.40225 141.811 8.90399 142.468 10.323C143.264 12.0562 143.662 14.152 143.662 16.6088V17.848C143.662 21.0516 142.676 24.0723 140.697 26.9133C139.274 28.9176 137.394 30.3782 135.066 31.3047L146 48.5388H134.459L120.959 27.4972V48.5388H111.517L111.487 0.966515ZM127.724 23.5999C129.434 23.5999 130.898 22.9447 132.121 21.6255C133.325 20.305 133.931 18.7345 133.931 16.9015C133.931 15.1683 133.305 13.648 132.061 12.3274C130.778 11.0697 128.838 10.4444 126.232 10.4444H120.929V23.5684H124.57V23.5999H127.724Z" fill="#F3770F"/>
<path d="M29.4657 61.4898L28.4919 63.7768C28.3236 64.2221 28.1552 64.6435 28.011 65.1007H27.975C27.8426 64.6435 27.6743 64.2221 27.4941 63.7768L26.52 61.4898H25.3535V67.8333H26.4357V65.3173C26.4357 64.6554 26.3876 64.0054 26.3635 63.4517L26.4238 63.4395C26.6041 63.9935 26.7726 64.5591 26.9407 65.0284L27.4579 66.2563H28.5279L29.0451 65.0284C29.2133 64.5591 29.3936 63.9935 29.5621 63.4395L29.6222 63.4517C29.5981 64.0054 29.5501 64.6554 29.5501 65.3173V67.8333H30.6324V61.4898H29.4657ZM35.1894 65.8472C35.0813 66.5332 34.7805 66.8463 34.0712 66.8463C33.4338 66.8463 33.0611 66.4491 33.0611 65.5824V65.1007H36.2716V63.6924C36.2716 62.1879 35.4177 61.3331 34.059 61.3331C32.7243 61.3331 31.8945 62.1879 31.8945 63.6924V65.5824C31.8945 67.0991 32.7243 67.9658 34.047 67.9658C35.4177 67.9658 36.2475 67.1953 36.3556 65.8472H35.1894ZM34.0712 62.4284C34.7324 62.4284 35.1172 62.8136 35.1172 63.6805V64.2221H33.0611V63.6805C33.0611 62.8136 33.4338 62.4284 34.0712 62.4284ZM39.9389 61.935C39.4096 61.935 38.9648 62.1157 38.6521 62.4646V62.1395C38.6521 61.0683 39.4337 60.8156 40.0831 60.635C40.6963 60.4543 41.2132 60.1897 41.562 59.5397L40.7204 58.8535C40.4196 59.3231 40.1672 59.4191 39.5539 59.6239C38.5201 59.985 37.4978 60.599 37.4978 62.2117V65.5702C37.4978 67.111 38.3515 67.9658 39.6982 67.9658C41.0689 67.9658 41.9227 67.111 41.9227 65.5702V64.3062C41.9227 62.7895 41.105 61.935 39.9389 61.935ZM40.7324 65.5702C40.7324 66.4491 40.3597 66.8342 39.6982 66.8342C39.0611 66.8342 38.6762 66.4491 38.6762 65.5702V64.3305C38.6762 63.4035 39.1572 63.0665 39.7224 63.0665C40.3597 63.0665 40.7324 63.4636 40.7324 64.3784V65.5702ZM46.3116 65.8472C46.2035 66.5332 45.9027 66.8463 45.1935 66.8463C44.5561 66.8463 44.1835 66.4491 44.1835 65.5824V65.1007H47.3938V63.6924C47.3938 62.1879 46.5401 61.3331 45.1813 61.3331C43.8465 61.3331 43.017 62.1879 43.017 63.6924V65.5824C43.017 67.0991 43.8465 67.9658 45.1692 67.9658C46.5401 67.9658 47.3697 67.1953 47.478 65.8472H46.3116ZM45.1935 62.4284C45.8547 62.4284 46.2395 62.8136 46.2395 63.6805V64.2221H44.1835V63.6805C44.1835 62.8136 44.5561 62.4284 45.1935 62.4284ZM47.9228 67.9176C49.1733 67.9176 49.7744 67.0631 49.9309 65.2935C50.003 64.5591 50.0752 63.3073 50.0871 62.5609H51.5059V67.8333H52.6602V61.4898H48.9688C48.9447 62.7173 48.8606 64.186 48.7885 65.1007C48.6922 66.1118 48.5602 66.798 47.9228 66.798V67.9176ZM56.2195 63.6324H55.2215V61.4898H54.055V67.8333H56.2195C57.422 67.8333 58.3117 66.9787 58.3117 65.7147C58.3117 64.4749 57.422 63.6324 56.2195 63.6324ZM56.0993 66.7741H55.2215V64.6916H56.0993C56.7125 64.6916 57.1334 65.0769 57.1334 65.7147C57.1334 66.3647 56.7125 66.7741 56.0993 66.7741ZM62.0873 61.4898V64.0416H60.3198V61.4898H59.1533V67.8333H60.3198V65.125H62.0873V67.8333H63.2536V61.4898H62.0873ZM66.6563 61.3331C65.3818 61.3331 64.5641 62.0795 64.5039 63.2951H65.6704C65.7303 62.7295 66.1153 62.4525 66.6322 62.4525C67.2696 62.4525 67.5461 62.8739 67.5461 63.6202V64.0657H66.6203C65.2253 64.0657 64.3236 64.7276 64.3236 66.0277C64.3236 67.2195 65.1051 67.9898 66.2715 67.9898C66.969 67.9898 67.4258 67.6647 67.6782 67.2436L67.7626 67.8333H68.7125V63.6202C68.7125 62.1636 68.0151 61.3331 66.6563 61.3331ZM67.5461 65.9436C67.5461 66.5452 67.1494 66.9547 66.512 66.9547C65.8746 66.9547 65.502 66.6055 65.502 66.0277C65.502 65.4018 65.9108 65.0769 66.6203 65.0769H67.5461V65.9436ZM71.8508 61.4898C70.5882 61.4898 69.7225 62.272 69.7225 63.5602C69.7225 64.5951 70.2153 65.2573 70.8646 65.5221L69.518 67.8333H70.8407L71.9829 65.6907H72.6682V67.8333H73.7987V61.4898H71.8508ZM72.6682 64.6916H71.8746C71.2014 64.6916 70.8646 64.3062 70.8646 63.5962C70.8646 62.9339 71.2253 62.549 71.8987 62.549H72.6682V64.6916ZM81.5781 61.3934H81.3257V59.1424H80.1955V61.3934H79.9549C78.548 61.3934 77.574 62.2839 77.574 63.8729V65.4018C77.574 67.0028 78.548 67.9176 79.9549 67.9176H80.1955V70H81.3257V67.9176H81.5781C82.9731 67.9176 83.9589 67.0028 83.9589 65.4018V63.8729C83.9589 62.2839 82.985 61.3934 81.5781 61.3934ZM79.9549 66.7741C79.2576 66.7741 78.7526 66.3407 78.7526 65.4018V63.8729C78.7526 62.9462 79.2576 62.5247 79.9549 62.5247H80.1955V66.7741H79.9549ZM82.7808 65.4018C82.7808 66.3407 82.2758 66.7741 81.5781 66.7741H81.3257V62.5247H81.5781C82.2758 62.5247 82.7808 62.9462 82.7808 63.8729V65.4018ZM87.2174 61.3331C85.9429 61.3331 85.1252 62.0795 85.065 63.2951H86.2315C86.2914 62.7295 86.6762 62.4525 87.1933 62.4525C87.8307 62.4525 88.1072 62.8739 88.1072 63.6202V64.0657H87.1812C85.7864 64.0657 84.8847 64.7276 84.8847 66.0277C84.8847 67.2195 85.6662 67.9898 86.8326 67.9898C87.5301 67.9898 87.9869 67.6647 88.2393 67.2436L88.3236 67.8333H89.2736V63.6202C89.2736 62.1636 88.5762 61.3331 87.2174 61.3331ZM88.1072 65.9436C88.1072 66.5452 87.7105 66.9547 87.0731 66.9547C86.4357 66.9547 86.0631 66.6055 86.0631 66.0277C86.0631 65.4018 86.4718 65.0769 87.1812 65.0769H88.1072V65.9436ZM93.1091 61.935C92.58 61.935 92.1352 62.1157 91.8224 62.4646V62.1395C91.8224 61.0683 92.6041 60.8156 93.2534 60.635C93.8667 60.4543 94.3836 60.1897 94.7324 59.5397L93.8908 58.8535C93.59 59.3231 93.3374 59.4191 92.7243 59.6239C91.6903 59.985 90.6681 60.599 90.6681 62.2117V65.5702C90.6681 67.111 91.5219 67.9658 92.8686 67.9658C94.2393 67.9658 95.0931 67.111 95.0931 65.5702V64.3062C95.0931 62.7895 94.2755 61.935 93.1091 61.935ZM93.9027 65.5702C93.9027 66.4491 93.5301 66.8342 92.8686 66.8342C92.2315 66.8342 91.8467 66.4491 91.8467 65.5702V64.3305C91.8467 63.4035 92.3274 63.0665 92.8927 63.0665C93.5301 63.0665 93.9027 63.4636 93.9027 64.3784V65.5702ZM98.6885 61.3453C98.1232 61.3453 97.5702 61.658 97.2575 62.0672L97.1735 61.4776H96.3315V70H97.4739V67.4722C97.7866 67.7973 98.2315 67.9777 98.6885 67.9777C99.9149 67.9777 100.709 67.0869 100.709 65.5462V63.8006C100.709 62.2479 99.8908 61.3453 98.6885 61.3453ZM99.5181 65.5462C99.5181 66.4729 99.1694 66.8825 98.4958 66.8825C97.8587 66.8825 97.4739 66.3769 97.4739 65.5462V63.7887C97.4739 62.8858 97.8949 62.4406 98.4958 62.4406C99.1451 62.4406 99.5181 62.8617 99.5181 63.8006V65.5462ZM101.947 67.8333H103.137L104.352 65.2935C104.604 64.7518 105.001 63.6082 105.061 63.3435L105.097 63.3554C105.061 63.9935 105.037 64.788 105.037 65.4018V67.8333H106.167V61.4898H104.977L103.751 64.1498C103.546 64.6673 103.186 65.6185 103.089 65.9436L103.053 65.9194C103.077 65.2332 103.077 64.6673 103.077 64.1618V61.4898H101.947V67.8333ZM110.857 67.8333H112.192L109.895 64.1979L111.891 61.4898H110.508L109.462 63.0184L108.717 64.186V61.4898H107.562V67.8333H108.717V65.5702L109.137 65.1129L110.857 67.8333ZM114.657 61.3331C113.382 61.3331 112.564 62.0795 112.504 63.2951H113.671C113.731 62.7295 114.116 62.4525 114.632 62.4525C115.27 62.4525 115.547 62.8739 115.547 63.6202V64.0657H114.621C113.226 64.0657 112.324 64.7276 112.324 66.0277C112.324 67.2195 113.106 67.9898 114.272 67.9898C114.969 67.9898 115.426 67.6647 115.679 67.2436L115.763 67.8333H116.713V63.6202C116.713 62.1636 116.015 61.3331 114.657 61.3331ZM115.547 65.9436C115.547 66.5452 115.15 66.9547 114.512 66.9547C113.875 66.9547 113.502 66.6055 113.502 66.0277C113.502 65.4018 113.911 65.0769 114.621 65.0769H115.547V65.9436Z" fill="#F3770F"/>
<path fill-rule="evenodd" clip-rule="evenodd" d="M22.2934 65.5417H0V64.2041H22.2934V65.5417Z" fill="#F3770F"/>
<path fill-rule="evenodd" clip-rule="evenodd" d="M145.126 65.5417H119.772V64.2041H145.126V65.5417Z" fill="#F3770F"/>
</svg>
