<svg width="90" height="42" viewBox="0 0 90 42" fill="none" xmlns="http://www.w3.org/2000/svg">
<g clip-path="url(#clip0_409_379)">
<path d="M16.1353 8.38835C16.1353 9.01626 16.0006 9.72972 15.7372 10.5333C15.5104 11.1799 15.24 11.7847 14.9332 12.3406C15.3261 12.5282 15.712 12.7457 16.0989 12.9933C16.5525 13.2896 16.908 13.5552 17.1602 13.7907C18.9194 15.5493 19.8025 17.665 19.8025 20.1302C19.8025 22.6082 18.9194 24.718 17.1602 26.4645C15.4 28.2351 13.2652 29.1233 10.7636 29.1233H0V0.579909H8.08285C10.3281 0.579909 12.2412 1.3714 13.8353 2.95517C15.3687 4.49016 16.1353 6.30268 16.1353 8.38835ZM10.7636 23.5273C11.6953 23.5273 12.4924 23.1949 13.1547 22.5174C13.7989 21.8588 14.1239 21.0613 14.1239 20.1302C14.1239 19.194 13.7867 18.3896 13.1183 17.7009C12.4559 17.0423 11.6711 16.6799 10.7636 16.6252C10.0699 16.5891 9.24248 16.5772 8.28544 16.5891H7.07719C6.5626 16.6012 6.1393 16.6071 5.80201 16.6071V23.5273H10.7636ZM10.5306 8.6179C10.5306 7.95927 10.2907 7.37845 9.81261 6.88339C9.3346 6.39939 8.75824 6.15788 8.08285 6.15788H5.80201V11.3795C6.31661 11.3615 7.04072 11.3127 7.97861 11.2407C8.69659 11.156 9.2972 10.8776 9.77612 10.4064C10.2785 9.92331 10.5306 9.33056 10.5306 8.6179ZM32.6513 0L45.8739 29.1233H39.5635L37.6069 24.7839H27.6898L25.7332 29.1233H19.4409L32.6513 0ZM35.3068 19.72L32.6635 13.6819L29.9898 19.72H35.3068ZM65.8539 0.513131V6.23069H54.2081V11.9843H62.9411V17.7009H54.2081V23.4546H65.8539V29.1593H48.3878V0.513131H65.8539ZM68.7251 0.579909H78.176C81.2426 0.579909 83.7686 1.54703 85.7556 3.48709C86.7308 4.44135 87.4175 5.3424 87.8225 6.19382C88.3136 7.23374 88.5587 8.49117 88.5587 9.9653V10.7088C88.5587 12.631 87.9512 14.4434 86.7308 16.148C85.8537 17.3506 84.6952 18.2269 83.2601 18.7828L90 29.1233H82.8853L74.5636 16.4983V29.1233H68.7433L68.7251 0.579909ZM78.734 14.1599C79.7884 14.1599 80.6908 13.7668 81.4442 12.9753C82.1866 12.183 82.5604 11.2407 82.5604 10.1409C82.5604 9.10101 82.1743 8.18882 81.4077 7.39643C80.6168 6.64179 79.4207 6.26663 77.8144 6.26663H74.5452V14.141H76.7896V14.1599H78.734Z" fill="#F3770F"/>
<path d="M18.1636 36.894L17.5633 38.2662C17.4596 38.5334 17.3558 38.7861 17.2669 39.0604H17.2447C17.1631 38.7861 17.0594 38.5334 16.9482 38.2662L16.3478 36.894H15.6287V40.7001H16.2958V39.1906C16.2958 38.7933 16.2662 38.4033 16.2513 38.071L16.2885 38.0637C16.3996 38.3961 16.5035 38.7355 16.6071 39.0172L16.9259 39.7539H17.5855L17.9044 39.0172C18.0081 38.7355 18.1191 38.3961 18.2232 38.0637L18.2601 38.071C18.2453 38.4033 18.2156 38.7933 18.2156 39.1906V40.7001H18.8829V36.894H18.1636ZM21.692 39.5083C21.6254 39.9201 21.4398 40.1078 21.0027 40.1078C20.6098 40.1078 20.3799 39.8695 20.3799 39.3496V39.0604H22.359V38.2154C22.359 37.3129 21.8327 36.8 20.9952 36.8C20.1724 36.8 19.6608 37.3129 19.6608 38.2154V39.3496C19.6608 40.2595 20.1724 40.7796 20.9878 40.7796C21.8327 40.7796 22.3441 40.3172 22.4109 39.5083H21.692ZM21.0027 37.4571C21.4103 37.4571 21.6475 37.6882 21.6475 38.2083V38.5334H20.3799V38.2083C20.3799 37.6882 20.6098 37.4571 21.0027 37.4571ZM24.6197 37.1611C24.2935 37.1611 24.0192 37.2695 23.8266 37.4787V37.2838C23.8266 36.6411 24.3083 36.4895 24.7086 36.381C25.0866 36.2727 25.4052 36.114 25.6203 35.7239L25.1015 35.3123C24.9161 35.5939 24.7604 35.6515 24.3824 35.7744C23.745 35.991 23.115 36.3594 23.115 37.327V39.3421C23.115 40.2666 23.6412 40.7796 24.4713 40.7796C25.3162 40.7796 25.8426 40.2666 25.8426 39.3421V38.5838C25.8426 37.6737 25.3386 37.1611 24.6197 37.1611ZM25.1089 39.3421C25.1089 39.8695 24.879 40.1006 24.4713 40.1006C24.0786 40.1006 23.8413 39.8695 23.8413 39.3421V38.5984C23.8413 38.0421 24.1378 37.8399 24.4863 37.8399C24.879 37.8399 25.1089 38.0782 25.1089 38.627V39.3421ZM28.5482 39.5083C28.4816 39.9201 28.296 40.1078 27.8589 40.1078C27.466 40.1078 27.2363 39.8695 27.2363 39.3496V39.0604H29.2152V38.2154C29.2152 37.3129 28.6889 36.8 27.8514 36.8C27.0286 36.8 26.5172 37.3129 26.5172 38.2154V39.3496C26.5172 40.2595 27.0286 40.7796 27.8438 40.7796C28.6889 40.7796 29.2003 40.3172 29.2671 39.5083H28.5482ZM27.8589 37.4571C28.2665 37.4571 28.5037 37.6882 28.5037 38.2083V38.5334H27.2363V38.2083C27.2363 37.6882 27.466 37.4571 27.8589 37.4571ZM29.5412 40.7506C30.3122 40.7506 30.6828 40.2379 30.7793 39.1763C30.8237 38.7355 30.8682 37.9845 30.8754 37.5366H31.75V40.7001H32.4615V36.894H30.1862C30.1712 37.6305 30.1194 38.5118 30.0749 39.0604C30.0157 39.6672 29.9341 40.0788 29.5412 40.0788V40.7506ZM34.6557 38.1795H34.0405V36.894H33.3214V40.7001H34.6557C35.397 40.7001 35.9454 40.1873 35.9454 39.4288C35.9454 38.6851 35.397 38.1795 34.6557 38.1795ZM34.5816 40.0645H34.0405V38.8151H34.5816C34.9596 38.8151 35.2191 39.0461 35.2191 39.4288C35.2191 39.8189 34.9596 40.0645 34.5816 40.0645ZM38.2728 36.894V38.4251H37.1833V36.894H36.4642V40.7001H37.1833V39.0751H38.2728V40.7001H38.9918V36.894H38.2728ZM41.0893 36.8C40.3038 36.8 39.7996 37.2478 39.7625 37.977H40.4816C40.5185 37.6378 40.7559 37.4716 41.0745 37.4716C41.4675 37.4716 41.6379 37.7245 41.6379 38.1722V38.4396H41.0672C40.2073 38.4396 39.6514 38.8367 39.6514 39.6166C39.6514 40.3317 40.1331 40.7939 40.852 40.7939C41.2821 40.7939 41.5638 40.5989 41.7193 40.3462L41.7713 40.7001H42.3568V38.1722C42.3568 37.2982 41.927 36.8 41.0893 36.8ZM41.6379 39.5662C41.6379 39.9273 41.3933 40.1728 41.0004 40.1728C40.6074 40.1728 40.3778 39.9634 40.3778 39.6166C40.3778 39.2411 40.6297 39.0461 41.0672 39.0461H41.6379V39.5662ZM44.2915 36.894C43.5132 36.894 42.9795 37.3633 42.9795 38.1361C42.9795 38.7571 43.2833 39.1545 43.6835 39.3133L42.8535 40.7001H43.6687L44.3729 39.4145H44.7953V40.7001H45.4923V36.894H44.2915ZM44.7953 38.8151H44.3061C43.8912 38.8151 43.6835 38.5838 43.6835 38.1577C43.6835 37.7604 43.9059 37.5295 44.321 37.5295H44.7953V38.8151ZM50.2877 36.8361H50.1321V35.4854H49.4353V36.8361H49.2872C48.4198 36.8361 47.8195 37.3704 47.8195 38.3237V39.2411C47.8195 40.2018 48.4198 40.7506 49.2872 40.7506H49.4353V42.0001H50.1321V40.7506H50.2877C51.1477 40.7506 51.7554 40.2018 51.7554 39.2411V38.3237C51.7554 37.3704 51.1549 36.8361 50.2877 36.8361ZM49.2872 40.0645C48.8572 40.0645 48.546 39.8045 48.546 39.2411V38.3237C48.546 37.7677 48.8572 37.5148 49.2872 37.5148H49.4353V40.0645H49.2872ZM51.0291 39.2411C51.0291 39.8045 50.7178 40.0645 50.2877 40.0645H50.1321V37.5148H50.2877C50.7178 37.5148 51.0291 37.7677 51.0291 38.3237V39.2411ZM53.764 36.8C52.9783 36.8 52.4743 37.2478 52.4372 37.977H53.1563C53.1932 37.6378 53.4304 37.4716 53.749 37.4716C54.142 37.4716 54.3124 37.7245 54.3124 38.1722V38.4396H53.7417C52.8818 38.4396 52.326 38.8367 52.326 39.6166C52.326 40.3317 52.8078 40.7939 53.5267 40.7939C53.9568 40.7939 54.2383 40.5989 54.394 40.3462L54.446 40.7001H55.0315V38.1722C55.0315 37.2982 54.6017 36.8 53.764 36.8ZM54.3124 39.5662C54.3124 39.9273 54.068 40.1728 53.6751 40.1728C53.2821 40.1728 53.0524 39.9634 53.0524 39.6166C53.0524 39.2411 53.3045 39.0461 53.7417 39.0461H54.3124V39.5662ZM57.3958 37.1611C57.0697 37.1611 56.7955 37.2695 56.6028 37.4787V37.2838C56.6028 36.6411 57.0846 36.4895 57.4848 36.381C57.8629 36.2727 58.1815 36.114 58.3965 35.7239L57.8777 35.3123C57.6923 35.5939 57.5366 35.6515 57.1586 35.7744C56.5212 35.991 55.8911 36.3594 55.8911 37.327V39.3421C55.8911 40.2666 56.4175 40.7796 57.2475 40.7796C58.0926 40.7796 58.6189 40.2666 58.6189 39.3421V38.5838C58.6189 37.6737 58.1148 37.1611 57.3958 37.1611ZM57.8851 39.3421C57.8851 39.8695 57.6554 40.1006 57.2475 40.1006C56.8549 40.1006 56.6177 39.8695 56.6177 39.3421V38.5984C56.6177 38.0421 56.914 37.8399 57.2625 37.8399C57.6554 37.8399 57.8851 38.0782 57.8851 38.627V39.3421ZM60.8353 36.8073C60.4868 36.8073 60.1459 36.9949 59.9531 37.2405L59.9013 36.8866H59.3823V42.0001H60.0865V40.4834C60.2793 40.6784 60.5536 40.7867 60.8353 40.7867C61.5913 40.7867 62.0803 40.2522 62.0803 39.3278V38.2805C62.0803 37.3488 61.5763 36.8073 60.8353 36.8073ZM61.3467 39.3278C61.3467 39.8838 61.1316 40.1296 60.7165 40.1296C60.3237 40.1296 60.0865 39.8263 60.0865 39.3278V38.2733C60.0865 37.7316 60.346 37.4644 60.7165 37.4644C61.1166 37.4644 61.3467 37.7172 61.3467 38.2805V39.3278ZM62.8437 40.7001H63.5776L64.3264 39.1763C64.4819 38.8512 64.7265 38.165 64.7638 38.0062L64.7859 38.0133C64.7638 38.3961 64.7488 38.8728 64.7488 39.2411V40.7001H65.4454V36.894H64.7118L63.9558 38.49C63.8298 38.8004 63.6073 39.3711 63.5481 39.5662L63.5257 39.5518C63.5407 39.14 63.5407 38.8004 63.5407 38.4971V36.894H62.8437V40.7001ZM68.3364 40.7001H69.1592L67.7433 38.5189L68.9738 36.894H68.1215L67.4766 37.8112L67.017 38.5118V36.894H66.3055V40.7001H67.017V39.3421L67.2764 39.0678L68.3364 40.7001ZM70.6786 36.8C69.8929 36.8 69.3889 37.2478 69.3518 37.977H70.0709C70.1078 37.6378 70.345 37.4716 70.6636 37.4716C71.0566 37.4716 71.2272 37.7245 71.2272 38.1722V38.4396H70.6564C69.7964 38.4396 69.2406 38.8367 69.2406 39.6166C69.2406 40.3317 69.7224 40.7939 70.4413 40.7939C70.8714 40.7939 71.1529 40.5989 71.3086 40.3462L71.3606 40.7001H71.9461V38.1722C71.9461 37.2982 71.5163 36.8 70.6786 36.8ZM71.2272 39.5662C71.2272 39.9273 70.9826 40.1728 70.5897 40.1728C70.1967 40.1728 69.967 39.9634 69.967 39.6166C69.967 39.2411 70.219 39.0461 70.6564 39.0461H71.2272V39.5662Z" fill="#F3770F"/>
<path fill-rule="evenodd" clip-rule="evenodd" d="M13.7425 39.3249H0V38.5225H13.7425V39.3249Z" fill="#F3770F"/>
<path fill-rule="evenodd" clip-rule="evenodd" d="M89.4611 39.3249H73.8324V38.5225H89.4611V39.3249Z" fill="#F3770F"/>
</g>
<defs>
<clipPath id="clip0_409_379">
<rect width="90" height="42" fill="white"/>
</clipPath>
</defs>
</svg>
