<svg xmlns="http://www.w3.org/2000/svg" viewBox="0 0 476 107.32"><defs><style>.cls-1{fill:#f37029;}.cls-2{fill:#fff;}</style></defs><title>Ресурс 1</title><g id="Слой_2" data-name="Слой 2"><g id="Слой_1-2" data-name="Слой 1"><path class="cls-1" d="M84.49,106.78c.12-1,.24-2,.37-2.94l.39-3.16.76-6c.13-1.13.26-2.17.38-3.14s.25-2,.39-3h2.33c.54,1.3,1,2.56,1.55,3.77l1.47,3.61L95,103h.18l2.88-7.1,1.46-3.63c.49-1.19,1-2.45,1.52-3.77h2.34c.12,1,.25,2,.36,3l.39,3.14.75,6.1c.13,1.11.26,2.15.38,3.1s.24,1.94.36,3h-2.22c-.19-1.63-.38-3.17-.56-4.64s-.35-2.82-.5-4.09l-.67-5.47h-.17l-2.32,5.89c-.57,1.43-1.13,2.86-1.7,4.3l-1.58,4H94.35c-.3-.78-.65-1.63-1-2.57l-1.17-2.86c-.39-1-.78-1.92-1.16-2.84l-2.4-5.93h-.17L87.77,98c-.16,1.27-.32,2.64-.5,4.1s-.36,3-.56,4.64Z"/><path class="cls-1" d="M111.66,106.78V88.47H123v2H112.65l1.29-1.66v17.63l-1.16-1.64h10.28v2Zm1.77-8.31V96.53h9.1v1.94h-9.1Z"/><path class="cls-1" d="M134.75,106.78h-5.92V88.47h11.58v2.07H129.78l1.33-1.74v16h3.27a8.58,8.58,0,0,0,2.54-.32,3,3,0,0,0,1.63-1.13,3.87,3.87,0,0,0,.56-2.26,3.43,3.43,0,0,0-.4-1.8,2.45,2.45,0,0,0-1-1,4.39,4.39,0,0,0-1.31-.39,9,9,0,0,0-1.2-.08h-4.34V96h4.48a9.48,9.48,0,0,1,3.46.54,4.1,4.1,0,0,1,2.05,1.71,6,6,0,0,1,.68,3,6.35,6.35,0,0,1-.62,2.85,4.36,4.36,0,0,1-2.1,1.95A9.43,9.43,0,0,1,134.75,106.78Z"/><path class="cls-1" d="M146.86,106.78V88.47h11.37v2H147.85l1.28-1.66v17.63L148,104.79h10.28v2Zm1.77-8.31V96.53h9.09v1.94h-9.09Z"/><path class="cls-1" d="M163.59,107l-.6,0-.54-.07-.46-.08.15-2,.51.08.42,0a2,2,0,0,0,1.74-.93,7.46,7.46,0,0,0,.89-2.89c.19-1.3.35-3,.47-5,.08-1.27.15-2.55.22-3.82s.15-2.55.23-3.83h11.95v18.31h-2.32v-18l1.24,1.67h-10L168.79,89c-.09,1.31-.17,2.62-.25,3.93s-.18,2.67-.28,4.08c-.11,1.7-.24,3.18-.38,4.44a13.74,13.74,0,0,1-.68,3.13,3.4,3.4,0,0,1-3.61,2.48Z"/><path class="cls-1" d="M191.17,106.78h-5.92V88.47h2.28v16.38h3.27a7.85,7.85,0,0,0,2.69-.39,2.87,2.87,0,0,0,1.54-1.24,4.28,4.28,0,0,0,.5-2.23,3.91,3.91,0,0,0-.36-1.83,2.54,2.54,0,0,0-1-1,3.72,3.72,0,0,0-1.29-.44,9.07,9.07,0,0,0-1.34-.11h-4.34V95.67h4.48a9.24,9.24,0,0,1,3.46.56,4,4,0,0,1,2,1.72,6.08,6.08,0,0,1,.68,3,7,7,0,0,1-.62,3,4.51,4.51,0,0,1-2.1,2.06A9.1,9.1,0,0,1,191.17,106.78Z"/><path class="cls-1" d="M203.28,106.78V88.47h2.32v18.31Zm1.51-8.27v-2h11.55v2Zm10.66,8.27V88.47h2.32v18.31Z"/><path class="cls-1" d="M222.83,106.78c.36-1,.74-2,1.13-3.11s.76-2.12,1.12-3.09l2.27-6.29c.4-1.13.77-2.15,1.11-3.07s.67-1.83,1-2.75h3c.34.94.67,1.87,1,2.77s.69,1.93,1.09,3.06l2.26,6.3c.36,1,.73,2.05,1.12,3.12l1.09,3.06h-2.41l-1.14-3.31c-.39-1.13-.75-2.2-1.1-3.2l-3.33-9.71h-.22l-3.37,9.62c-.36,1-.75,2.14-1.14,3.28s-.78,2.25-1.17,3.32Zm3.39-4.6.21-1.82h9.27l.17,1.82Z"/><path class="cls-1" d="M242.48,106.78l1.28-1.61,1.48-1.86,1.41-1.77,2.88-3.63.6,1a8.69,8.69,0,0,1-2.94-.43,5,5,0,0,1-1.91-1.19,4.42,4.42,0,0,1-1-1.74,6.61,6.61,0,0,1-.32-2.11,5.37,5.37,0,0,1,.69-2.9A3.92,3.92,0,0,1,246.7,89a10.65,10.65,0,0,1,3.5-.49h6.31v18.31h-2.3v-18l1.28,1.6h-5.2a10.7,10.7,0,0,0-1.36.09,3.88,3.88,0,0,0-1.29.39,2.42,2.42,0,0,0-1,1,3.82,3.82,0,0,0-.36,1.81,3.36,3.36,0,0,0,1.16,2.91,5.93,5.93,0,0,0,3.56.86h3.59v1.93h-4.29l1.5-1.14-3.29,4.23-1.65,2.1-1.75,2.23Z"/><path class="cls-1" d="M277.62,105.18a13.16,13.16,0,0,1-4.15-.57,7,7,0,0,1-2.74-1.59,6.07,6.07,0,0,1-1.52-2.38,9,9,0,0,1-.47-3,8.58,8.58,0,0,1,.87-4A6.06,6.06,0,0,1,272.4,91a11.31,11.31,0,0,1,5-1h.9l0,1.87h-.86a8.64,8.64,0,0,0-3.59.64,4.33,4.33,0,0,0-2.07,1.91,6.74,6.74,0,0,0-.66,3.15,6.48,6.48,0,0,0,.67,3.11,4.3,4.3,0,0,0,2.1,1.9,9,9,0,0,0,3.67.64h.86l0,1.88Zm-.16,2.14V104.7l.05,0V90.6l-.05,0V87.93h2.32v2.62l0,0v14.05l0,0v2.62Zm1.3-2.14,0-1.88h.86a9,9,0,0,0,3.68-.64,4.39,4.39,0,0,0,2.1-1.9,6.47,6.47,0,0,0,.68-3.11,6.62,6.62,0,0,0-.67-3.15,4.27,4.27,0,0,0-2.06-1.91,8.63,8.63,0,0,0-3.6-.64h-.86l0-1.87h.91a11.31,11.31,0,0,1,5,1,6.16,6.16,0,0,1,2.79,2.66,9.15,9.15,0,0,1,0,7.81,6.06,6.06,0,0,1-2.81,2.68,11.55,11.55,0,0,1-5.2,1Z"/><path class="cls-1" d="M291.42,106.78c.36-1,.74-2,1.13-3.11s.76-2.12,1.12-3.09l2.27-6.29c.41-1.13.77-2.15,1.11-3.07s.67-1.83,1-2.75h3.06l1,2.77c.33.91.69,1.93,1.1,3.06l2.26,6.3,1.11,3.12,1.09,3.06h-2.41l-1.14-3.31c-.39-1.13-.75-2.2-1.09-3.2l-3.34-9.71h-.22l-3.36,9.62c-.37,1-.75,2.14-1.15,3.28s-.78,2.25-1.17,3.32Zm3.39-4.6.21-1.82h9.27l.17,1.82Z"/><path class="cls-1" d="M318.61,106.78h-5.92V88.47h11.58v2.07H313.64L315,88.8v16h3.26a8.61,8.61,0,0,0,2.55-.32,3,3,0,0,0,1.63-1.13,4,4,0,0,0,.56-2.26,3.43,3.43,0,0,0-.4-1.8,2.45,2.45,0,0,0-1-1,4.48,4.48,0,0,0-1.31-.39,9,9,0,0,0-1.2-.08h-4.34V96h4.48a9.52,9.52,0,0,1,3.46.54,4.1,4.1,0,0,1,2.05,1.71,6,6,0,0,1,.68,3,6.35,6.35,0,0,1-.62,2.85,4.36,4.36,0,0,1-2.1,1.95A9.43,9.43,0,0,1,318.61,106.78Z"/><path class="cls-1" d="M330.72,106.78V88.47h6.47a9.29,9.29,0,0,1,3.46.55,4.07,4.07,0,0,1,2.05,1.72,5.83,5.83,0,0,1,.68,3,6.73,6.73,0,0,1-.63,3,4.4,4.4,0,0,1-2.08,2,8.74,8.74,0,0,1-4,.75h-4V97.56h3.57a8.08,8.08,0,0,0,2.69-.38,2.86,2.86,0,0,0,1.55-1.24,4.34,4.34,0,0,0,.5-2.22,3.71,3.71,0,0,0-.37-1.8,2.41,2.41,0,0,0-1-1,3.85,3.85,0,0,0-1.29-.43,9,9,0,0,0-1.35-.1h-5.16L333,88.8v18Z"/><path class="cls-1" d="M348.74,106.78V88.47H351V102.8h.19l4-5.62,3-4.25,3.16-4.46h2v18.31h-2.28V92.44h-.19l-4,5.61-3.31,4.67q-1.5,2.13-2.88,4.06Z"/><path class="cls-1" d="M370,106.78V88.47h2.33v18.31Zm11.17,0-2.29-2.48L376.83,102l-3.48-3.76h-1.26V96.35h1.24l3-3.14,2.11-2.2,2.41-2.54h2.82l-2.75,2.84-2.68,2.78-3.39,3.53,0-1,3.76,4.15c.59.63,1.21,1.31,1.88,2s1.31,1.45,2,2.14l1.68,1.84Z"/><path class="cls-1" d="M387.57,106.78c.36-1,.74-2,1.13-3.11s.76-2.12,1.12-3.09l2.27-6.29c.4-1.13.77-2.15,1.11-3.07s.66-1.83,1-2.75h3.05c.34.94.67,1.87,1,2.77s.69,1.93,1.09,3.06l2.26,6.3,1.11,3.12c.39,1.06.75,2.08,1.1,3.06h-2.41l-1.14-3.31c-.39-1.13-.75-2.2-1.1-3.2l-3.33-9.71h-.22l-3.37,9.62c-.36,1-.75,2.14-1.14,3.28s-.78,2.25-1.17,3.32Zm3.39-4.6.21-1.82h9.27l.17,1.82Z"/><path class="cls-1" d="M128.48,14.13A14.42,14.42,0,0,0,121,8a34.47,34.47,0,0,0-12.5-1.94H84.64V70.42H95.12V45.91h12.55q8.67,0,13.76-2.66a15.83,15.83,0,0,0,7.31-7.36A24.84,24.84,0,0,0,131,25.15Q131,18.33,128.48,14.13Zm-9.87,18.06a8.94,8.94,0,0,1-4.8,3.88,24,24,0,0,1-8.36,1.22H95.12V14.67H107.8a26.37,26.37,0,0,1,4.27.36,11.89,11.89,0,0,1,4,1.42,7.89,7.89,0,0,1,3,3.17,11.9,11.9,0,0,1,1.13,5.62A13.55,13.55,0,0,1,118.61,32.19Z"/><path class="cls-1" d="M141,70.43V6.05h10.34v46.5h.81L164.88,34.4q4.69-6.78,9.59-13.79T184.65,6.05h9V70.43H183.34V23.88h-.77L169.8,42,159.19,57.2l-9.26,13.23Z"/><path class="cls-1" d="M205.5,70.43V6.05h10.61V70.43Zm7.31-28v-9h38.1v9Zm34.54,28V6.05H258V70.43Z"/><path class="cls-1" d="M404.94,70.43H391.89c-2.56-3-5-5.84-7.18-8.49l-6.55-7.77L367.28,41.31H364V70.43H353.42V6.05H364V32.82h3.21l9.51-10.65q3.41-3.75,6.67-7.48T391,6.05h12.55q-4.69,5.1-9.14,10t-8.91,9.86l-9.35,10.31L386.6,48.66q2.94,3.44,6.26,7.41t6.5,7.74Z"/><path class="cls-1" d="M75.72,37.86A37.86,37.86,0,0,1,15.1,68.12c-.88-.66-1.72-1.35-2.53-2.08l-1-1-.23-.24c-.62-.61-1.21-1.23-1.78-1.87S8.43,61.71,7.91,61s-1.14-1.55-1.67-2.36A37.54,37.54,0,0,1,0,39.23c0-.45,0-.9,0-1.37s0-.68,0-1a37.72,37.72,0,0,1,6-19.5l.15-.23c.44-.68.92-1.34,1.4-2l.08-.1c.23-.32.48-.62.71-.93.64-.77,1.28-1.51,2-2.23s1.27-1.29,1.94-1.9c.36-.34.74-.68,1.13-1s.9-.75,1.37-1.12a37.86,37.86,0,0,1,60.93,30Z"/><path class="cls-1" d="M343.8,37.86a37.86,37.86,0,0,1-60.62,30.26c-.87-.66-1.72-1.35-2.53-2.08l-1-1-.23-.24c-.62-.61-1.21-1.23-1.78-1.87S276.51,61.71,276,61s-1.15-1.55-1.68-2.36a37.54,37.54,0,0,1-6.2-19.45c0-.45,0-.9,0-1.37s0-.68,0-1a37.72,37.72,0,0,1,6-19.5c.05-.07.1-.16.16-.23.43-.68.91-1.34,1.39-2l.08-.1.72-.93c.63-.77,1.27-1.51,1.95-2.23s1.28-1.29,1.94-1.9c.37-.34.74-.68,1.13-1s.9-.75,1.37-1.12a37.86,37.86,0,0,1,60.93,30Z"/><path class="cls-1" d="M476,37.86a37.86,37.86,0,0,1-60.62,30.26c-.87-.66-1.72-1.35-2.53-2.08l-1-1-.23-.24c-.62-.61-1.21-1.23-1.78-1.87s-1.09-1.26-1.6-1.93-1.15-1.55-1.68-2.36a37.54,37.54,0,0,1-6.2-19.45c0-.45,0-.9,0-1.37s0-.68,0-1a37.72,37.72,0,0,1,6-19.5c.05-.07.1-.16.16-.23.43-.68.91-1.34,1.39-2L408,15l.72-.93c.63-.77,1.27-1.51,1.95-2.23s1.28-1.29,1.94-1.9c.37-.34.74-.68,1.13-1s.9-.75,1.37-1.12a37.86,37.86,0,0,1,60.93,30Z"/><path class="cls-2" d="M407.54,39.7v0A33.14,33.14,0,0,0,413,56.79c.46.71,1,1.4,1.47,2.07h18v5.62h2V58.79H441V39.7Zm18.14,9.42H410.49V47.38h15.19Z"/><path class="cls-2" d="M414.18,18.53c-.47.63-.92,1.27-1.35,1.94a33.17,33.17,0,0,0-5.31,17.09H441v-19ZM425.69,30h-15.2V28.15h15.2Z"/><path class="cls-2" d="M68.43,36.79a33.19,33.19,0,0,0-5.31-17.13,2.14,2.14,0,0,0-.13-.19c-.38-.6-.8-1.18-1.22-1.75l-.08-.09c-.2-.28-.42-.55-.62-.81-.56-.68-1.12-1.33-1.72-2s-1.12-1.13-1.71-1.66c-.32-.3-.64-.6-1-.88H47.39V61.39H58.52c.54-.53,1.06-1.08,1.56-1.64s1-1.11,1.41-1.7S62.5,56.69,63,56A33,33,0,0,0,68.41,38.9q0-.59,0-1.2C68.44,37.4,68.44,37.1,68.43,36.79Zm-17.28,3H48.87v-6h2.28Z"/><path class="cls-2" d="M26.34,12.32V27.2h18.9V12.32Zm12.2,13h-6V23.05h6Z"/><path class="cls-2" d="M26.34,29.48V44.37h18.9V29.48Zm12.2,13h-6V40.21h6Z"/><path class="cls-2" d="M26.34,46.65v19.5h2.41V61.53H45.24V46.65Zm12.2,13h-6V57.37h6Z"/><path class="cls-2" d="M328.74,25.33V34h-4.25a3.59,3.59,0,0,0,.09-.81V30.69a4.52,4.52,0,0,0-4.51-4.51h-8.55a1.46,1.46,0,0,0-.37,0A4.51,4.51,0,0,0,307,30.69v2.46a4,4,0,0,0,.08.81h-2.37a4.48,4.48,0,0,0,.07-.8V30.69a4.48,4.48,0,0,0-4-4.47h0a3.52,3.52,0,0,0-.45,0H291.8a4.52,4.52,0,0,0-4.5,4.51v2.46a3.53,3.53,0,0,0,.09.81h-4.25V25.33a3.24,3.24,0,0,1,3.24-3.24h39.11A3.24,3.24,0,0,1,328.74,25.33Z"/><path class="cls-2" d="M332.69,44.35H279.18l.07-1.74a8.44,8.44,0,0,1,1.63-4.79,4.5,4.5,0,0,1,2.26-1.71,24.32,24.32,0,0,1,6.2-.44h33.19a24.41,24.41,0,0,1,6.21.44A4.59,4.59,0,0,1,331,37.82a8.43,8.43,0,0,1,1.62,4.79Z"/><polygon class="cls-2" points="332.87 46.11 332.87 53.82 328.91 53.82 328.91 50.18 282.97 50.18 282.97 53.82 279.02 53.82 279.02 46.11 332.87 46.11"/><path class="cls-2" d="M288.61,34V30.5a3,3,0,0,1,3-3h8.91a3,3,0,0,1,3,3V34Z"/><path class="cls-2" d="M308.32,34V30.5a3,3,0,0,1,3-3h8.9a3,3,0,0,1,3,3V34Z"/></g></g></svg>