<svg width="40" height="45" viewBox="0 0 40 45" fill="none" xmlns="http://www.w3.org/2000/svg">
<g clip-path="url(#clip0_905_16)">
<mask id="mask0_905_16" style="mask-type:luminance" maskUnits="userSpaceOnUse" x="0" y="0" width="40" height="45">
<path d="M40 0H0V45H40V0Z" fill="white"/>
</mask>
<g mask="url(#mask0_905_16)">
<mask id="mask1_905_16" style="mask-type:luminance" maskUnits="userSpaceOnUse" x="0" y="0" width="40" height="45">
<path d="M40 0H0V45H40V0Z" fill="white"/>
</mask>
<g mask="url(#mask1_905_16)">
<path fill-rule="evenodd" clip-rule="evenodd" d="M24.8089 39.4181C33.5319 37.265 40 29.3879 40 20C40 8.9543 31.0457 0 20 0C8.9543 0 0 8.9543 0 20C0 29.3879 6.46821 37.2651 15.1912 39.4181C15.804 39.6381 17.0749 40.3088 18.5 42.314C19.0081 43.0289 19.3533 43.6147 19.5831 44.0548C19.7222 44.3211 20.2778 44.3211 20.4169 44.0548C20.6467 43.6147 20.9919 43.0289 21.5 42.314C22.9252 40.3088 24.1961 39.638 24.8089 39.4181Z" fill="#F3770F"/>
</g>
</g>
<path d="M25.4074 15.4713C25.4074 15.9112 25.3121 16.4112 25.1259 16.9742C24.9655 17.4273 24.7744 17.851 24.5575 18.2405C24.8353 18.372 25.1081 18.5244 25.3816 18.6979C25.7023 18.9055 25.9537 19.0916 26.1319 19.2566C27.3757 20.4888 28 21.9713 28 23.6986C28 25.4349 27.3757 26.9132 26.1319 28.137C24.8875 29.3776 23.3782 30 21.6096 30H14V10H19.7144C21.3018 10 22.6543 10.5546 23.7813 11.6643C24.8654 12.7399 25.4074 14.0099 25.4074 15.4713ZM21.6096 26.0789C22.2684 26.0789 22.8319 25.846 23.3002 25.3713C23.7555 24.9098 23.9853 24.351 23.9853 23.6986C23.9853 23.0426 23.747 22.479 23.2744 21.9965C22.8061 21.535 22.2512 21.2811 21.6096 21.2427C21.1192 21.2174 20.5343 21.2091 19.8576 21.2174H19.0034C18.6396 21.2259 18.3404 21.23 18.1019 21.23V26.0789H21.6096ZM21.4449 15.6321C21.4449 15.1706 21.2753 14.7636 20.9373 14.4168C20.5994 14.0776 20.1919 13.9084 19.7144 13.9084H18.1019V17.5671C18.4657 17.5545 18.9777 17.5203 19.6407 17.4699C20.1483 17.4105 20.5729 17.2155 20.9115 16.8853C21.2667 16.5468 21.4449 16.1315 21.4449 15.6321Z" fill="white"/>
</g>
<defs>
<clipPath id="clip0_905_16">
<rect width="40" height="45" fill="white"/>
</clipPath>
</defs>
</svg>
